<svg xmlns="http://www.w3.org/2000/svg" xmlns:xlink="http://www.w3.org/1999/xlink" viewBox="0 0 386.71 370.45"><defs><style>.cls-1{opacity:0.51;}.cls-2{fill:url(#Naamloos_verloop_35);}.cls-3,.cls-6{fill:none;}.cls-3{stroke:#010101;}.cls-3,.cls-5,.cls-6,.cls-7{stroke-miterlimit:10;}.cls-4{fill:#010101;}.cls-5{fill:#f8d702;}.cls-5,.cls-6,.cls-7{stroke:#1d1d1b;}.cls-7{fill:#f8d800;}.cls-8{fill:#1d1d1b;}</style><radialGradient id="Naamloos_verloop_35" cx="179.67" cy="190.36" r="123.65" gradientUnits="userSpaceOnUse"><stop offset="0" stop-color="#fcf3a3"/><stop offset="0.27" stop-color="#fcf4ab"/><stop offset="0.69" stop-color="#fbf6c1"/></radialGradient></defs><title>carrierPigeon</title><g id="Laag_3" data-name="Laag 3"><g class="cls-1"><circle class="cls-2" cx="179.67" cy="190.36" r="123.65"/></g><path class="cls-3" d="M153.64,329s2.47,2.71,7.58.68"/><path class="cls-3" d="M153.64,325.15s2.47,2.71,7.58.68"/><path class="cls-3" d="M153.64,321.73s2.47,2.71,7.58.68"/><path class="cls-3" d="M153.64,318.69s3.51,2.61,10.75.65"/><path class="cls-3" d="M151.14,315.28s5.29,3.31,16.2.83"/><circle class="cls-4" cx="268.79" cy="103.61" r="1.29"/><circle class="cls-4" cx="252.13" cy="104.56" r="3.45"/><circle class="cls-4" cx="353.27" cy="302.16" r="1.29"/><circle class="cls-4" cx="370.58" cy="278.85" r="1.29"/><circle class="cls-4" cx="45.16" cy="55.14" r="1.29"/><circle class="cls-4" cx="117.92" cy="53.85" r="1.29"/><circle class="cls-4" cx="147.21" cy="28.01" r="1.29"/><circle class="cls-4" cx="127.83" cy="58.59" r="3.45"/><circle class="cls-4" cx="46.45" cy="205.17" r="1.29"/><circle class="cls-4" cx="128.09" cy="159.87" r="1.29"/><circle class="cls-4" cx="124.38" cy="174.71" r="3.45"/><rect class="cls-5" x="284" y="170.19" width="48.08" height="25.78" rx="4.89" transform="translate(-41.32 262.79) rotate(-43.58)"/><path class="cls-5" d="M282.66,190.36s18.32-1.62,24.87-6.79,8-24.51,8-24.51"/><rect class="cls-5" x="250.5" y="180.57" width="48.08" height="25.78" rx="4.89" transform="translate(430.48 -104) rotate(82.49)"/><path class="cls-5" d="M284.22,170.59s-9.84,15.62-9.55,23.86S290.07,215,290.07,215"/><rect class="cls-5" x="230.75" y="174.7" width="48.08" height="25.78" rx="4.89" transform="translate(217.11 -126.56) rotate(46.8)"/><path class="cls-5" d="M249.64,163.72s1,18.32,6,24.77S280,196,280,196"/><rect class="cls-5" x="182" y="174.39" width="48.08" height="25.78" rx="4.89" transform="translate(232.44 -89.9) rotate(53.17)"/><path class="cls-5" d="M202.08,161s-.55,18.95,4,26.28,24.1,11.19,24.1,11.19"/><rect class="cls-5" x="211.17" y="176.5" width="48.08" height="25.78" rx="4.89" transform="translate(6.06 -7.29) rotate(1.8)"/><path class="cls-5" d="M212.21,176.08s13.84,12.23,22,13.28,22.82-11.87,22.82-11.87"/><rect class="cls-5" x="266.03" y="180.57" width="48.08" height="25.78" rx="4.89" transform="translate(6.21 -9.01) rotate(1.8)"/><path class="cls-5" d="M267.07,180.15s13.94,12.24,22.17,13.28,23-11.86,23-11.86"/><path class="cls-5" d="M187.41,187s83,16.39,137.86,0c0,0,4,3,0,7.28,0,0-.93.54,1.76,1.77,0,0,1.45,2.12-1.26,2.79,0,0,30.72,106.66,1.65,116.54,0,0,10.28,0,12.51,6.92,0,0-104.18,22.4-160.51,0,0,0,1.65-5.6,12.52-5.27,0,0-36.89.19-7.58-111.74L187,198.2s-3.79-2.56-.49-3.88C186.51,194.32,181.07,189.06,187.41,187Z"/><path class="cls-6" d="M202.48,199.51c7.41,1.24,44.47,12.1,105.25,0"/><path class="cls-6" d="M191.94,317s31.43,11.8,85.59,5.35"/><path class="cls-6" d="M297.35,320.67s10.5-.72,15.45-2.69"/><rect class="cls-6" x="208.91" y="234.67" width="96.17" height="51.56" rx="4.89"/><path class="cls-6" d="M210.17,235.29s29.68,23.6,46.82,25.16,46.82-25.16,46.82-25.16"/><path class="cls-7" d="M240,191.2s24.5,24.11,13.86,71.35c0,0-28.93,70.95-104,49.71,0,0-48.92-14.49-94.62-63.08,0,0,2.71-7.58,9.14-10.3,0,0,4.69,3,6.17,4.69L67,236.9s2.71-4.58,13.34-8.46c0,0,4.44,1.79,5.19,4.51,0,0-2.72-5.68,3.21-8.15,0,0,3.46-2.47,5.68-2.47l8.89,10.87L142,194.82"/><path class="cls-7" d="M191.69,68.14s-13.38,0-19.44,6a99.68,99.68,0,0,0-1.85,33.72s-4.2,7-5.43,13c0,0,3.08-.84,4.32-2.32,0,0-6.79,26.28-9,48l-.86,6.5,21.74,28.43s3.62,5.17,5.27,5.17a12.4,12.4,0,0,0,3.29-6,17.64,17.64,0,0,0,5.44,6s2.14-2.87,2.3-4.72c0,0,2.8,5.71,5.44,6.37s4.78-6.82,4.78-6.82l2.47,3.69v-3.69s2.67,2.22,7.51-.83,2.86.76,5.5.83,4.45-7.84,4.45-7.84,1.15,1.65,2.3,1.81,1.32,1.82,1.32,1.82,1.32-1.16,2.14-6.1c0,0,2.14,2,6.59.17,0,0,2.63-.83,4.28.33,0,0-1.81-6.59-8.23-14,0,0-7.91-34-12-44.25,0,0,2.47,2.08,3.79,2.25,0,0-.66-3.63-5.27-12.19,0,0-7.41-40.88-13-55.2A77.65,77.65,0,0,0,191.69,68.14Z"/><ellipse class="cls-6" cx="178.68" cy="87.86" rx="6.42" ry="15.75"/><ellipse class="cls-8" cx="177.53" cy="89.31" rx="2.14" ry="3.34"/><ellipse class="cls-6" cx="206.19" cy="85.97" rx="6.42" ry="15.75" transform="translate(-6.39 17.3) rotate(-4.73)"/><ellipse class="cls-8" cx="207.46" cy="87.31" rx="2.14" ry="3.34" transform="translate(-6.49 17.41) rotate(-4.73)"/><path class="cls-6" d="M187.57,97.15a11,11,0,0,1,11.2,0s-3.13,5.93-5.6,7.41C193.17,104.56,190.26,102.41,187.57,97.15Z"/><path class="cls-8" d="M172.66,68.56l-4.91,8.25s19.34,4.6,46.24-5.09l-5-6.87S186.12,70.23,172.66,68.56Z"/><path class="cls-7" d="M166.06,51.63s8.72-6.75,40.4-7.15c0,0,3.06,6.33.52,7.6l-3,1.51,3-.2A25.18,25.18,0,0,1,209,64.85s-25.66,5.57-36.29,3.71c0,0-3-2.38-2.92-7.63C169.74,60.93,165,58.54,166.06,51.63Z"/><rect class="cls-6" x="176.86" y="51.89" width="20.78" height="11.29" rx="1.55" transform="translate(-3.45 12.73) rotate(-3.86)"/><path class="cls-7" d="M160.13,167.51s-13.24,9.85-14.72,21.71c0,0-4.78,2.64-3.46,5.6s70.33,80.71,107.22,94.54c0,0,11.53-6.26,13.34-23.39,0,0-22.89-3.45-80.13-63l-23-30.07Z"/><path class="cls-6" d="M103.32,233.2,70.38,264.1S97,295.59,148.29,275s5.15-66.75,5.15-66.75"/><path class="cls-6" d="M114,222.61s3.67,4.19,3.43,7a15.63,15.63,0,0,0,0,4.06s3.1-1.48,4,0,11,12.6,10.06,17.05,3.95,1.17,3.95,1.17,11.28,12.92,10,24.15c0,0-12.12,4.29-19.08,5,0,0-6.7-3.92-7.94-10.09l2-3s-3,1.73-4.69.25c0,0-6.67-5.19-5.93-9.88l1.23-1.54h-2.47A30.14,30.14,0,0,1,101,235.35Z"/><path class="cls-7" d="M210.3,310.28A40.41,40.41,0,0,0,204.37,331s-1.73,3.71-5.43,0V320.16s-8.23-1-9.43-4.93c0,0,13.17-1.88,22.05-7.12Z"/><path class="cls-7" d="M198.94,329.72s3,2.44,5.47.23l27.39-3.36c2.88,1.4,1.81,3.7,1.81,3.7-.17-1.15-2-1.07-2-1.07-4.93-.16-14.84,2.47-14.84,2.47,9.14,1.49,14.33,5.52,14.33,5.52a2.63,2.63,0,0,1-.33,3.46,3.67,3.67,0,0,0-1.24-2.22l-20.5-4c-6.92,0-21.74,4.94-21.74,4.94-3.46,2-3.46,4-3.46,4-1.24-2,1.73-6.43,1.73-6.43L198.94,331"/><path class="cls-6" d="M149.77,312.26a21.86,21.86,0,0,0,3.87,6.42v14a5.89,5.89,0,0,0,7.58,0V320.4s2.78,0,7.4-4.56C168.62,315.84,157.42,315,149.77,312.26Z"/><path class="cls-6" d="M153.64,332.68,131.74,335s-4,1.31-3.63,3.29c0,0,3.81-2,4.06-1.44l20.57-1.36-13,8.9s-1.61,1.48-.87,3.08c0,0,1.19-2,2.82-2l16.82-8.9,11.37,6.8s2,.86,1.36,2.1c0,0,2.21-1.61.12-4.45l-10.17-8.36"/><path class="cls-3" d="M199,326.37a4.54,4.54,0,0,0,5.75,0"/><path class="cls-3" d="M199,323.17a6.83,6.83,0,0,0,6.64,0"/><path class="cls-3" d="M199.07,320.09a6,6,0,0,0,7.44-1.4"/><path class="cls-3" d="M190.68,316.94a23.46,23.46,0,0,0,17.06-1.75"/><path class="cls-3" d="M195.41,313.88a20,20,0,0,0,13.48-1"/><line class="cls-6" x1="178.35" y1="52.44" x2="178.35" y2="63.63"/><line class="cls-6" x1="181.91" y1="52.44" x2="181.91" y2="63.63"/><line class="cls-6" x1="185.47" y1="52.44" x2="185.47" y2="63.63"/><line class="cls-6" x1="189.04" y1="51.44" x2="189.04" y2="62.63"/><line class="cls-6" x1="192.6" y1="51.44" x2="192.6" y2="62.63"/><line class="cls-6" x1="196.16" y1="51.44" x2="196.16" y2="62.63"/><line class="cls-6" x1="257.68" y1="273.98" x2="246.59" y2="288.31"/><line class="cls-6" x1="251.54" y1="274.04" x2="242.25" y2="286.23"/><line class="cls-6" x1="244.23" y1="274.23" x2="237.31" y2="283.47"/><line class="cls-6" x1="237.94" y1="273.65" x2="233.15" y2="280.88"/><line class="cls-6" x1="233.29" y1="273.46" x2="230.09" y2="278.85"/><line class="cls-6" x1="228.83" y1="274.23" x2="227" y2="276.69"/><line class="cls-6" x1="225.36" y1="273.36" x2="224.22" y2="274.68"/></g></svg>