<svg id="Laag_1" data-name="Laag 1" xmlns="http://www.w3.org/2000/svg" xmlns:xlink="http://www.w3.org/1999/xlink" viewBox="0 0 480.77 529.94"><defs><style>.cls-1,.cls-6,.cls-7{fill:none;}.cls-2,.cls-5{fill:#010101;}.cls-2{opacity:0.04;}.cls-3,.cls-4{fill:#fff;}.cls-3,.cls-6,.cls-7{stroke:#010101;stroke-miterlimit:10;}.cls-7{stroke-width:3px;}.cls-8{opacity:0.51;}.cls-9{fill:url(#Naamloos_verloop_35);}.cls-10{clip-path:url(#clip-path);}.cls-11{font-size:171.22px;fill:#1d1d1b;font-family:Horizon-Regular, Horizon;}</style><radialGradient id="Naamloos_verloop_35" cx="-2207.17" cy="-595.68" r="105.96" gradientTransform="translate(1946.43 859.85) scale(0.78 1.14)" gradientUnits="userSpaceOnUse"><stop offset="0" stop-color="#fcf3a3"/><stop offset="0.27" stop-color="#fcf4ab"/><stop offset="0.69" stop-color="#fbf6c1"/></radialGradient><clipPath id="clip-path"><path class="cls-1" d="M359.93,125.36v-11l-19.22,9.16,17.39,25.63,85.14-8.24-29.3-28.38-5.49,4.58.92,8.24S384.65,135.43,359.93,125.36Z"/></clipPath></defs><title>headerIllustration</title><circle class="cls-2" cx="239.1" cy="263.59" r="166.61"/><path class="cls-3" d="M172.83,320.45c16.94-2.11,34.84-3.82,50.9,2.21,6.23,1.7,12.24,4.14,18.45,5.95,25,7.31,52.32,3.9,76.49-5.82a6,6,0,0,0,3.05-2.05c1.34-2.05-.07-4.71-.18-7.15-.29-6.33,7.76-9.55,10.45-15.29,5-10.64-10.24-20.81-9.94-32.55.23-8.58,8.79-15.5,8.19-24.06-.64-9.25-11.31-14.43-14.89-23-7.24-17.3,17.19-36.48,9.41-53.55-2.35-5.15-7.42-9-8.44-14.59-1-5.34,2.08-10.58,2.36-16,.56-10.85-10.17-19.26-20.8-21.46-4.46-.92-9.38-1.27-12.75-4.34s-4.13-7.66-6.22-11.54c-5.21-9.67-17.83-13.31-28.64-11.36S230,94.13,220.94,100.29c-1.36.92-1.56,4-.16,3.13-3.74-4.65-12.84-8.37-18.5-6.5a15.13,15.13,0,0,0-10.09,13.45c-.07,1.81.18,3.72-.58,5.37s-2.49,2.78-4.16,3.63c-5,2.54-10.46,4.06-15.21,7s-8.87,7.85-8.63,13.43c.11,2.6,1.16,5.12,1,7.72-.63,9.39-30.94,27.39-14.5,36.39,1.94,1.06,4.2,1.45,6.11,2.57,5,2.94,6,10,4.26,15.59s-5.44,10.25-8,15.49-3.74,11.84-.47,16.66c2.84,4.19,8.45,6.08,10.72,10.61,2.43,4.84,0,10.82-3.55,14.89s-8.26,7.09-11.6,11.36-5,10.67-1.76,15c1.74,2.32,4.55,3.61,6.49,5.77,5.82,6.49,1.44,16.65,2.21,25.33a5.71,5.71,0,0,0,1.41,3.74c1.39,1.31,3.56,1.18,5.46.95C165.14,321.44,169,320.93,172.83,320.45Z"/><path class="cls-3" d="M267,120.93c12.61,6.92,24,16.76,30.46,29.62,7.47,14.94,7.62,32.35,7.6,49a16.72,16.72,0,0,1-.55,5.19c-.6,1.85-1.84,3.45-2.39,5.31-1.9,6.45,4.81,12.3,5.45,19,.54,5.54-3.14,10.49-6.42,15s-6.48,10-4.9,15.34c1.18,4,4.74,6.74,7.3,10,5.56,7.15,6.17,17.87,1.13,25.39s-15.47,11-23.9,7.75c-2.59-1-5-2.58-7.68-3.24-2.06-.49-4.21-.43-6.29-.85-8.09-1.63-12.91-9.76-16.7-17.09-3-5.76-6-11.63-7.15-18-1.29-7.23-.09-14.63,1-21.89q3.65-24.27,5.76-48.73c.47-5.45.86-11.09-.9-16.27-1.51-4.46-4.49-8.23-7.18-12.09a115.17,115.17,0,0,1-9.94-17.18c-3.76-8-12.52-31.16-3.66-38.73,4.11-3.51,13.26,1.61,17.68,3.17A141.87,141.87,0,0,1,267,120.93Z"/><rect class="cls-4" x="170.44" y="298.83" width="150.13" height="130.91"/><path class="cls-3" d="M298.69,165.61l2.12,36.21s17.41-14.51,14.24-34.25C315.05,167.57,307.15,156.49,298.69,165.61Z"/><path class="cls-3" d="M189.1,165.61,187,201.82s-17.41-14.51-14.24-34.25C172.74,167.57,180.64,156.49,189.1,165.61Z"/><path class="cls-3" d="M285.38,291.05,342.13,303s25.64,72.32,32,98.87-65,23.8-65.91,8.23l-4.57-29.29"/><path class="cls-3" d="M271.14,261.76l-27.46,5.49-27.47-5.49c0,1.83,2.75,11-4.57,30.2,0,0,7.32,13.74,32,16.48,24.71-2.74,32-16.48,32-16.48C268.39,272.74,271.14,263.59,271.14,261.76Z"/><path class="cls-3" d="M299.51,156.05c-4.86-.7-9.45-3.31-11.69-7.38-.95-1.74-2.24-3.29-3.2-5l0-.07,0,0c-.7-.75-1.38-1.52-2.1-2.25a62.38,62.38,0,0,0-4.7-4.35c-.84-.7-1.71-1.37-2.57-2.05,2.54,2,.08.11-.51-.28a62,62,0,0,0-6.29-3.61c-.78-.38-1.59-.71-2.36-1.1,3.25,1.63-.14,0-.91-.24s-1.59-.47-2.4-.67c-.59-.15-1.19-.28-1.79-.38-1.24-.23-.79-.19,1.33.1-1.24-.67-4.4-.1-5.8,0a12.94,12.94,0,0,1-6.08-.88l-7.69.55c-3.06.21-6.12.43-9.17.69-1.77.15-3.54.31-5.31.49-.56.06-4,.53-3.61.44l-2,.32c-1.5.25-3,.52-4.48.82-3,.61-6,1.33-8.89,2.18-1.49.43-3,.9-4.42,1.4-.52.18-1,.38-1.55.57-3.15,1.56-6.28,3-9.33,4.76a20.62,20.62,0,0,1-8.91,2.73l2.46,81c4.33,42.51,55.15,47,59,47.24v.34s54.39-6.62,55.68-51Z"/><circle class="cls-3" cx="276.17" cy="348.26" r="18.77"/><path class="cls-5" d="M219.87,241.62s23.81,3.66,47.61,0c0,0-2.75-2.75-18.31-3.67,0,0-6.41,1.84-9.16,0S219.87,241.62,219.87,241.62Z"/><path class="cls-6" d="M233.15,250.31s7.32,3.66,21,0"/><path class="cls-6" d="M231.78,216.9s9.15,9.15,23.8,0"/><path class="cls-6" d="M253.75,193.12s1.73-15.77,18.06-16.17c0,0,7.64,0,10.77,10.65,0,0-5.56,11-19.8,9.46C262.78,197.06,260.35,197.06,253.75,193.12Z"/><circle class="cls-5" cx="267.02" cy="189.89" r="7.32"/><path class="cls-6" d="M231.78,193.12S230,177.35,213.71,177c0,0-7.64,0-10.77,10.65,0,0,5.56,11,19.8,9.46C222.74,197.06,225.17,197.06,231.78,193.12Z"/><circle class="cls-5" cx="218.5" cy="189.89" r="7.32"/><path class="cls-5" d="M254.51,162.75s-2.75,4.27,0,8.53c0,0,7.32.71,23.8-.71,0,0,6.41,1.42,11,2.85,0,0-.91-5-11.9-10.67A214.11,214.11,0,0,0,254.51,162.75Z"/><path class="cls-5" d="M233.15,162.75s2.74,4.27,0,8.53c0,0-7.33.71-23.8-.71,0,0-6.41,1.42-11,2.85,0,0,.92-5,11.9-10.67A214.26,214.26,0,0,1,233.15,162.75Z"/><path class="cls-3" d="M223.69,128.92c5.7,12.48,17.73,2.94,27.3,3.36a4.59,4.59,0,0,1,2.38.66c1.9,1.3,1.61,4.1,1.87,6.39.64,5.74,6.46,10.15,12.24,9.94,3.72-.14,7.21-1.84,10.9-2.29s8.19,1,9.1,4.6c.64,2.55-.75,5.1-1.72,7.54s-1.4,5.64.6,7.35c2.73,2.32,8.62.78,9.16,4.32.18,1.23-.56,2.37-.93,3.55-2.45,7,4.76,7.81,8.5,4.57,2.92-2.53,4.76-8.63,5.59-12.33,1.17-5.19,1.54-11.94-1.82-16.35-1.45-1.89-12.84-5.74-12.52-4.75-1.14-3.52,2.51-6.8,2.94-10.48.52-4.44-3.83-8.07-8.18-9.09s-8.94-.35-13.35-1.1-9.07-3.7-9.36-8.16c-.15-2.37,1-4.64,1.11-7,.24-4.3-2.91-8.24-6.78-10.12s-8.34-2.06-12.64-1.89c-5.88.23-17.79.19-22.68,3.87s-3.46,8.33-3.56,14.39c-.07,3.82-.12,7.75,1.17,11.35C223.23,127.84,223.46,128.4,223.69,128.92Z"/><path class="cls-3" d="M207.45,147.06c-1.24,3.87-2.7,7.65-6.37,11.24s-8.65,6.84-10.32,11.88c-3.49,10.54-4,18.41-11.64,27.15-5.86,6.71-15.9,14-13.68,24.25,1.4,6.4,8.15,9.95,12,15.27a19.09,19.09,0,0,1-2.11,24c-4.25,4.15-10.62,6.44-13,11.88-2.66,6.13,1.13,13.08,5.37,18.25s9.35,10.43,9.71,17.1c.45,8.13-13.73,7.27-17.84,3.69-2.66-2.32-2.67-5.78-4.18-8.74-2.59-5.06-5.71-6.36-9.67-10.09a12.12,12.12,0,0,1-3.34-9.51,26.09,26.09,0,0,1,3.05-9.87,63,63,0,0,1,7.85-12.12c8.94-10.84,10.83-15.34,0-24.57-15-12.76,10.71-29.49,5.16-44.1-1.17-3.07-4.85-4.17-7.57-6a12.86,12.86,0,0,1,.43-21.51c1.85-1.16,4-1.84,5.75-3.1,3.64-2.58,5.29-7.24,5.48-11.7s-.83-8.86-1.48-13.27c-.4-2.73-.62-5.66.65-8.1,3.81-7.32,12.54-4.21,18.74-5.78,5.77-1.46,9.2-6.22,13.09-10.51,7.1-7.82,16.91-19.73,27.13-9,1.19,1.25,1.43,3.09,1.62,4.8.58,5.4,1.16,11-.32,16.18-1.78,6.29-8.16,7.83-11,13.11A51.94,51.94,0,0,0,207.45,147.06Z"/><path class="cls-3" d="M217.67,142.34c.45,3.32,3.05,6.15,3.08,9.5,0,3.89-3.38,6.9-6.77,8.8-4.42,2.48-9.34,4.1-13.37,7.16s-7.09,8.25-5.67,13.1c.69,2.32,2.33,4.37,2.47,6.78.36,6.08-8.68,10.18-7.27,16.11,1.64,6.91,14.59,5.1,16.39,12,1.25,4.72-4.23,8.72-4.5,13.59a9,9,0,0,0,3.46,7,26.56,26.56,0,0,0,7.11,3.89c-4.45,1.73-9.44.33-14-1.06-4.07-1.25-8.9-3.41-9.19-7.65-.34-5,6.17-9.28,4.22-13.88-.73-1.73-2.47-2.76-4.06-3.76a60.83,60.83,0,0,1-10-7.75c-1.69-1.61-3.4-3.66-3.12-6,.33-2.67,3.05-4.23,5.06-6a14.8,14.8,0,0,0,4.56-14c-.7-3.18-2.46-6.14-2.59-9.39-.21-5.46,4.19-10,8.78-13s9.83-5.25,13.17-9.57a10.42,10.42,0,0,0,2.41-6.4c0-2.56-1.37-5-1.21-7.55.3-5.16,6.05-8,10.94-9.66a8.06,8.06,0,0,1,4.28-.66C228.31,125.46,217.07,138,217.67,142.34Z"/><path class="cls-3" d="M203.54,94.54A19,19,0,0,0,188.45,106c-1,2.52-1.56,5.38-3.53,7.25s-4.48,2.23-7,2.69c-6.28,1.16-12.67,2.73-17.87,6.44s-9,10-8,16.32c.58,3.78,2.77,7.32,2.53,11.13-.67,10.67-18.6,14.19-18.25,24.86.21,6.21,6.72,10.09,9.65,15.57,2.79,5.19,2.12,11.7-.37,17s-6.6,9.74-10.75,13.93c-4.77,4.82-10,11.9-6.4,17.62,1.93,3,5.78,4.32,7.9,7.22,3.08,4.23,1.38,10.35-1.74,14.56s-7.46,7.45-10.26,11.88a21.09,21.09,0,0,0,18.36,32.33c-7.83-6-15.77-14.63-13.8-24.26,1.16-5.67,5.55-10.07,10.06-13.7s9.44-7,12.51-11.87,3.64-12-.5-16c-3.2-3.12-8.64-4-10.4-8.1-2-4.69,2.28-9.54,6.24-12.77,4.5-3.66,9.17-7.33,12.23-12.27s4.18-11.52,1.22-16.51-9.73-7.92-10.71-13.73c-.73-4.35,2.25-8.5,5.71-11.24s7.57-4.66,10.64-7.83a18.41,18.41,0,0,0,4.57-16.84c-1-4.18-3.41-9-.77-12.37,1.71-2.21,4.82-2.64,7.59-3,6.5-.85,13.65-2.72,17.11-8.29,1.82-2.93,2.35-6.54,4.25-9.43,4.89-7.49,13.74-5.43,20.81-5.81A18.54,18.54,0,0,0,203.54,94.54Z"/><path class="cls-3" d="M206.14,291.05,149.39,303s-25.63,72.32-32,98.87,65,23.8,65.91,8.23l4.57-29.29"/><path class="cls-3" d="M282.07,289s-11.85,10.13-38.41,9.33c-26.54,1-38.48-9-38.48-9A14,14,0,0,0,196,293.1c18.4,21,47.69,19,47.69,19s29.3,1.7,47.51-19.44A14,14,0,0,0,282.07,289Z"/><path class="cls-3" d="M236.34,127.56c3.13,1.08,5.86,4.12,5.43,7.4-.32,2.4-2.21,4.75-1.28,7,.62,1.5,2.31,2.26,3.91,2.51a40.24,40.24,0,0,1,4.81.58c3.85,1.1,6.11,5.62,5.32,9.54s-4.07,7.05-7.85,8.38a9.63,9.63,0,0,0,3-7.09,7.46,7.46,0,0,0-4-6.37c-2.16-1-4.67-.78-7-1.11s-5-1.66-5.29-4c-.17-1.22.32-2.43.32-3.66a6.23,6.23,0,0,0-2.82-4.83c-2.43-1.74-10.53-3-6.18-7.48C227,125.91,233.52,126.59,236.34,127.56Z"/><path class="cls-3" d="M309,205.73c-.55.87-1.3,1.6-1.85,2.46a6.92,6.92,0,0,0-.94,5.21c.47,2.13,1.91,3.88,3.1,5.71s2.21,4,1.68,6.12c-.63,2.57-3.23,4.08-5.67,5.11-3.68,1.56-7.83,2.71-11.64,1.52,1.15-2.91,5.65-3.71,6.15-6.81.43-2.61-2.32-4.48-3.82-6.66a8.06,8.06,0,0,1-.1-8.77,41.92,41.92,0,0,1,3.59-4c1.66-1.94,4.18-8.06,7.31-8C310.33,197.75,310.38,203.48,309,205.73Z"/><path class="cls-5" d="M308.21,185.17a17.25,17.25,0,0,1-7.48,8.8l-1.11-9.29a5.52,5.52,0,0,1,.09-2.43c.39-1.07,5.43-6.78,6.3-6.84C309.67,175.15,308.93,183.06,308.21,185.17Z"/><rect class="cls-5" x="300.89" y="189.89" width="3.66" height="23.8"/><path class="cls-7" d="M303.42,208.37c-1.92,10.72,6.19,20.87,5.89,31.78-.44,15.79-18,27.75-15.38,43.28,1.81,10.66,12.89,18.15,12.58,29-.34,11.5-13.16,18.15-15.86,29.28-2.27,9.37,3.21,18.68,4.88,28.21,1.71,9.83-.77,20.09-5.11,28.93S280,415.34,273.93,422.9"/><path class="cls-7" d="M182.36,207.2c-5.2,10.16-13.25,21-9.6,31.78,2.07,6.12,7.49,10.41,10.8,15.94a25.91,25.91,0,0,1,2,22.15c-1.81,4.77-5,8.88-7,13.57s-2.49,10.6.76,14.5c4,4.82,11.51,4.32,17,7.36,8.73,4.86,9.94,17,8.6,26.92s-4.06,20.64.45,29.59c3.66,7.25,11.24,11.52,16.72,17.51,8.5,9.29,11.64,22.71,10.32,35.27"/><line class="cls-6" x1="191.04" y1="382.13" x2="187.38" y2="410.51"/><line class="cls-6" x1="196.07" y1="383.51" x2="192.41" y2="410.97"/><line class="cls-6" x1="199.74" y1="393.58" x2="196.99" y2="411.88"/><line class="cls-6" x1="202.48" y1="399.07" x2="200.65" y2="411.88"/><line class="cls-6" x1="206.14" y1="407.31" x2="205.23" y2="412.8"/><line class="cls-6" x1="300.43" y1="383.96" x2="304.09" y2="412.34"/><line class="cls-6" x1="295.4" y1="385.34" x2="299.06" y2="412.8"/><line class="cls-6" x1="291.74" y1="395.41" x2="294.48" y2="413.72"/><line class="cls-6" x1="288.99" y1="400.9" x2="290.82" y2="413.72"/><line class="cls-6" x1="285.33" y1="409.14" x2="286.24" y2="414.63"/><line class="cls-6" x1="243.68" y1="298.37" x2="243.68" y2="312.1"/><line class="cls-6" x1="248.25" y1="298.37" x2="249.17" y2="312.1"/><line class="cls-6" x1="253.75" y1="298.37" x2="255.58" y2="311.19"/><line class="cls-6" x1="259.24" y1="297.46" x2="261.98" y2="310.27"/><line class="cls-6" x1="263.81" y1="296.54" x2="267.48" y2="308.44"/><line class="cls-6" x1="269.31" y1="295.63" x2="273.88" y2="305.7"/><line class="cls-6" x1="273.88" y1="293.8" x2="278.46" y2="302.95"/><line class="cls-6" x1="277.55" y1="291.96" x2="283.04" y2="300.2"/><line class="cls-6" x1="280.29" y1="290.13" x2="287.62" y2="296.54"/><line class="cls-6" x1="238.18" y1="298.37" x2="237.27" y2="311.19"/><line class="cls-6" x1="233.61" y1="298.37" x2="231.78" y2="311.19"/><line class="cls-6" x1="229.94" y1="297.46" x2="225.37" y2="310.27"/><line class="cls-6" x1="225.37" y1="297.46" x2="220.79" y2="308.44"/><line class="cls-6" x1="221.71" y1="296.54" x2="215.3" y2="306.61"/><line class="cls-6" x1="217.13" y1="295.63" x2="210.72" y2="304.78"/><line class="cls-6" x1="212.55" y1="293.8" x2="207.06" y2="302.95"/><line class="cls-6" x1="209.8" y1="291.96" x2="202.48" y2="300.2"/><line class="cls-6" x1="206.14" y1="290.13" x2="199.74" y2="296.54"/><line class="cls-6" x1="219.87" y1="264.5" x2="217.13" y2="287.39"/><line class="cls-6" x1="222.62" y1="265.42" x2="220.79" y2="285.56"/><line class="cls-6" x1="225.37" y1="266.33" x2="224.45" y2="283.73"/><line class="cls-6" x1="229.03" y1="267.25" x2="228.11" y2="281.89"/><line class="cls-6" x1="231.78" y1="268.16" x2="231.78" y2="280.06"/><line class="cls-6" x1="234.52" y1="269.08" x2="234.52" y2="277.32"/><line class="cls-6" x1="237.27" y1="269.99" x2="237.27" y2="275.49"/><path class="cls-6" d="M264.25,87.68a140.46,140.46,0,0,0,24.36-46.24c1.6-5.23,2.9-10.77,1.77-16.11A18.32,18.32,0,0,0,261,14.86c-3.23,2.6-5.52,7.53-3,10.82a8.85,8.85,0,0,0,4.62,2.72,31.49,31.49,0,0,0,26-3.58"/><path class="cls-6" d="M289.17,39.53s5.77-14,16.75-5.71C305.92,33.82,297.14,50.75,289.17,39.53Z"/><path class="cls-6" d="M286,49.26s-4.75-9-13.91-3.54c0,0-3.66,4.57,0,6.4C272.05,52.12,276.06,56.46,286,49.26Z"/><path class="cls-6" d="M278.41,66.07S288.53,54,297.69,61.28a9,9,0,0,1-10.07,6.41S282,68.12,278.41,66.07Z"/><path class="cls-6" d="M275.1,72s-4.88-7-15-5.19c0,0-5.49,5.49,0,9.15C260.15,75.92,265.32,80.81,275.1,72Z"/><path class="cls-6" d="M270.8,78.75c1.25-.08,12.24-6.49,23.22-.08,0,0-13.32,13.16-23.59.63"/><g class="cls-8"><rect class="cls-9" x="117" y="157.74" width="230.36" height="48.94" transform="translate(-11.61 15.85) rotate(-3.81)"/></g><path class="cls-6" d="M242.3,86.45s-10.07-12.81-11-22"/><path class="cls-3" d="M234.52,73.18s6.41-5.49,2.75-14.65c0,0-5.49-3.66-6.41,2.75S234.52,73.18,234.52,73.18Z"/><path class="cls-3" d="M238.08,80.4s-3.56-4.48-10-1.73c0,0-1.83,4.58,3.67,5.49A6,6,0,0,0,238.08,80.4Z"/><path class="cls-3" d="M240.08,83.41s-1-14.81,11.83-14.81C251.91,68.6,252.05,86.31,240.08,83.41Z"/><path class="cls-6" d="M136.84,338.62A396.34,396.34,0,0,1,88,319.18a66.22,66.22,0,0,1-10.5-5.88c-7.6-5.5-12.78-13.74-16.81-22.22A125.34,125.34,0,0,1,54,273.77"/><path class="cls-3" d="M56.93,285.56s-19.22-5.5-25.63,7.32C31.3,292.88,40.45,303,56.93,285.56Z"/><path class="cls-3" d="M54.18,273.66s.92-26.55,21.06-20.14c0,0,7.32,6.4-5.49,18.31A18.8,18.8,0,0,1,54.18,273.66Z"/><path class="cls-3" d="M64.11,297.61s.14-18.46,13-15.72c0,0,10.07,6.41-3.66,12.82Z"/><path class="cls-3" d="M74.91,311.22s-17.07-3.69-28,6.38c0,0,0,11.9,17.39,4.57C64.25,322.17,69.08,319.5,74.91,311.22Z"/><path class="cls-3" d="M84.69,317.56s-4.88-11.86,7-16.44c0,0,11,1.83,0,14.65C91.72,315.77,90.49,316.6,84.69,317.56Z"/><path class="cls-3" d="M94,322S79.52,323,73.76,336.85c-.12.29-.24.58-.35.89-5.5,14.64,16.47,1.83,16.47,1.83S96.27,335.51,94,322Z"/><path class="cls-3" d="M109.71,316.4a8.72,8.72,0,0,1,.75-2.72,9.22,9.22,0,0,1,3.21-3.27,12,12,0,0,1,4-1.93,5.57,5.57,0,0,1,4.32.65c2.3,1.55,2.57,4.9,1.85,7.58a20.66,20.66,0,0,1-9.37,11.79C109.13,331.39,109.31,319.5,109.71,316.4Z"/><path class="cls-3" d="M130.84,326a3.12,3.12,0,0,1,1.4-.82,1.51,1.51,0,0,1,1.48.46,2.24,2.24,0,0,1,.37,1,6.37,6.37,0,0,1,.16,2.08,6.66,6.66,0,0,1-1.92,3.27c-1.24,1.39-4.26,5-4.4,1.1A10.29,10.29,0,0,1,130.84,326Z"/><path class="cls-3" d="M117,338.93a13.68,13.68,0,0,0-3.67,8.82,29.72,29.72,0,0,0,3.49-1,15.14,15.14,0,0,0,8.63-8.76C127.57,332,118.66,337.15,117,338.93Z"/><path class="cls-6" d="M136.94,338.38a8.78,8.78,0,0,1-3.11,1.19c-12.53,3-25.16,5.95-37,11s-23,12.51-30.45,23-10.76,24.42-6.74,36.66c1.69,5.13,4.75,10,9.36,12.81"/><path class="cls-3" d="M82,424.39a14.35,14.35,0,0,0,8.75-5.77,3.3,3.3,0,0,0,.66-1.84c0-1.62-1.88-2.51-3.44-2.92-4.24-1.11-8.8-1.44-12.94,0-3.14,1.07-9,4.62-7.15,8.7C69.83,426.79,78.56,425.24,82,424.39Z"/><path class="cls-3" d="M53.64,418.52a21.52,21.52,0,0,0-7.8,8.63,2.34,2.34,0,0,0-.23,2.41,2.15,2.15,0,0,0,1.33.69,13.93,13.93,0,0,0,11.49-2.46c2.13-1.63,6.29-6.5,5.14-9.57C62.15,414.47,56.16,417,53.64,418.52Z"/><path class="cls-3" d="M59,390.05s-14.87-.14-18.53,10.85C40.45,400.9,51.87,406.66,59,390.05Z"/><path class="cls-3" d="M57.91,396s10.92-5.13,16.41,5.86C74.32,401.82,63.46,408.41,57.91,396Z"/><path class="cls-3" d="M72.51,366.41s11.88,2.45,11.88,18c0,0-8.24,9.16-13.73-1.83C70.66,382.59,68,375.85,72.51,366.41Z"/><path class="cls-3" d="M69.75,366.11c1.73-2.31-9.16-4.57-15.57,6.41C54.18,372.52,61.51,377.1,69.75,366.11Z"/><path class="cls-3" d="M108.88,346.17s7.1,13.59-2.49,21.93c-.3.26-.61.51-.94.76C94.46,377.1,101.32,354.61,108.88,346.17Z"/><path class="cls-3" d="M95.12,351.35s-8.9-13.61-20.8.12C74.32,351.47,81.13,361.3,95.12,351.35Z"/><path class="cls-3" d="M92.74,352.89a16.48,16.48,0,0,1-.11,20.55S79.13,369,92.74,352.89Z"/><path class="cls-6" d="M122.48,98.56c7.89,0,16.4,2.31,21.08,8.65,4.88,6.63,4.75,16.48,11,21.85"/><path class="cls-3" d="M122.05,98S110.87,120.67,98,114.53c0,0-7.82-8.39,9.66-17.6C107.61,96.93,116.25,93.77,122.05,98Z"/><path class="cls-3" d="M129.4,99.19S120.18,83.31,133,78.12c0,0,11.33-.07,5.17,9.07Z"/><path class="cls-3" d="M143.42,107.59S131,107,124.17,117.25c0,0,4.48,6.41,14.66,1.91C138.83,119.16,142.58,115.36,143.42,107.59Z"/><path class="cls-3" d="M147.65,116s-4.5-16.81,6.34-22.43C154,93.53,163.29,102.5,147.65,116Z"/><circle class="cls-3" cx="385.11" cy="123.07" r="21.51"/><g class="cls-10"><path class="cls-6" d="M410.12,122.9A20.22,20.22,0,0,1,397.6,127a100.06,100.06,0,0,1-10.36-1.15c-.6-.06-1.19-.08-1.78-.09q-1.45.36-2.94.63c-3.29.62-6.88,1.23-10.26.78-4.83-.64-8.82-1.65-12.55-4.18-3.32.81-5.27,1.78-5.27,2.83,0,2.78,13.73,5,30.67,5s30.67-2.25,30.67-5C415.78,124.73,413.68,123.73,410.12,122.9Z"/></g><circle class="cls-5" cx="410.28" cy="163.81" r="1.37"/><circle class="cls-5" cx="46.86" cy="345.06" r="1.37"/><circle class="cls-5" cx="109.11" cy="132.68" r="1.37"/><circle class="cls-5" cx="170.44" cy="75.92" r="1.37"/><circle class="cls-5" cx="201.57" cy="48.46" r="1.37"/><circle class="cls-5" cx="30.38" cy="391.75" r="1.37"/><circle class="cls-5" cx="27.18" cy="379.39" r="3.66"/><circle class="cls-5" cx="180.97" cy="80.96" r="3.66"/><circle class="cls-5" cx="397.92" cy="163.35" r="3.66"/><circle class="cls-5" cx="448.27" cy="131.31" r="1.37"/><circle class="cls-5" cx="415.78" cy="98.81" r="1.37"/><path class="cls-6" d="M399.72,255.1l-5.1,17.65c-1,3.52-2.07,7.11-4.1,10.15A33.61,33.61,0,0,1,383.4,290c-11.67,9.41-24.12,17.79-36.56,26.16"/><path class="cls-3" d="M395.64,268.16s-9.16-21.05-2.75-24.71,11.9,1.83,9.15,7.32C402,250.77,398.38,261.76,395.64,268.16Z"/><path class="cls-3" d="M391.91,280.45c.07-.39,9.22-8.62,18.37-.39,0,0,.92,8.24-11.9,8.24C398.38,288.3,390.93,286.32,391.91,280.45Z"/><path class="cls-3" d="M381.22,291.76s-10.3-12.61-5.72-19S387,282.4,381.22,291.76Z"/><path class="cls-3" d="M373.28,297.81c1.3-.35,20.52-6.76,22.36,4.22S373.28,297.81,373.28,297.81Z"/><path class="cls-3" d="M366.94,302.4s-11.58-4-7.92-12.27c0,0,5.49-6.4,9.15,1.83C368.17,292,370.28,296.37,366.94,302.4Z"/><path class="cls-3" d="M356.31,309.78c.27-1.82,14.61-2.25,20.1,5.07,0,0-3.66,11-15.56,5.49C360.85,320.34,355.44,315.69,356.31,309.78Z"/><path class="cls-3" d="M352.17,312.59s-9.63-4.15-5.05-13.3C347.12,299.29,357.22,300.26,352.17,312.59Z"/><text class="cls-11" transform="translate(15.23 481.26)">Nienke</text><text class="cls-11" transform="translate(215.01 481.26)">Overmeer</text></svg>